<?xml version="1.0" encoding="UTF-8"?>
<svg width="24px" height="24px" viewBox="0 0 24 24" version="1.1" xmlns="http://www.w3.org/2000/svg" xmlns:xlink="http://www.w3.org/1999/xlink">
    <title>Shape</title>
    <g id="Page-1" stroke="none" stroke-width="1" fill="none" fill-rule="evenodd">
        <g id="Artboard" transform="translate(-576.000000, -1243.000000)" fill="#333333" fill-rule="nonzero">
            <path d="M588,1243 C594.627417,1243 600,1248.37258 600,1255 C600,1261.62742 594.627417,1267 588,1267 C581.372583,1267 576,1261.62742 576,1255 C576,1248.37258 581.372583,1243 588,1243 Z M588,1243.60606 C581.707301,1243.60606 576.606061,1248.7073 576.606061,1255 C576.606061,1261.2927 581.707301,1266.39394 588,1266.39394 C594.292699,1266.39394 599.393939,1261.2927 599.393939,1255 C599.393939,1248.7073 594.292699,1243.60606 588,1243.60606 Z M588,1247 C591.313708,1247 594,1249.66838 594,1252.96 C594,1255.6893 592,1259.3693 588,1264 C584,1259.3693 582,1255.6893 582,1252.96 C582,1249.66838 584.686292,1247 588,1247 Z M588,1250.68 C586.754579,1250.68 585.744966,1251.68288 585.744966,1252.92 C585.744966,1254.15712 586.754579,1255.16 588,1255.16 C589.245421,1255.16 590.255034,1254.15712 590.255034,1252.92 C590.255034,1251.68288 589.245421,1250.68 588,1250.68 Z" id="Shape"></path>
        </g>
    </g>
</svg>