<?xml version="1.0" encoding="UTF-8"?>
<svg width="36px" height="38px" viewBox="0 0 36 38" version="1.1" xmlns="http://www.w3.org/2000/svg" xmlns:xlink="http://www.w3.org/1999/xlink">
    <title>rainy</title>
    <g id="Page-1" stroke="none" stroke-width="1" fill="none" fill-rule="evenodd">
        <g id="Artboard" transform="translate(-431.000000, -1140.000000)" fill="#94B8D1">
            <path d="M456.405819,1172.18411 C456.856424,1172.63471 456.856424,1173.36529 456.405819,1173.81589 L452.815892,1177.40582 C452.365287,1177.85642 451.634713,1177.85642 451.184108,1177.40582 C450.733503,1176.95521 450.733503,1176.22464 451.184108,1175.77403 L454.774034,1172.18411 C455.224639,1171.7335 455.955214,1171.7335 456.405819,1172.18411 Z M440.713511,1172.18411 C441.164116,1172.63471 441.164116,1173.36529 440.713511,1173.81589 L437.123585,1177.40582 C436.67298,1177.85642 435.942405,1177.85642 435.4918,1177.40582 C435.041195,1176.95521 435.041195,1176.22464 435.4918,1175.77403 L439.081727,1172.18411 C439.532332,1171.7335 440.262907,1171.7335 440.713511,1172.18411 Z M448.559665,1172.18411 C449.01027,1172.63471 449.01027,1173.36529 448.559665,1173.81589 L444.969739,1177.40582 C444.519134,1177.85642 443.788559,1177.85642 443.337954,1177.40582 C442.887349,1176.95521 442.887349,1176.22464 443.337954,1175.77403 L446.92788,1172.18411 C447.378485,1171.7335 448.10906,1171.7335 448.559665,1172.18411 Z M462.405819,1166.18411 C462.856424,1166.63471 462.856424,1167.36529 462.405819,1167.81589 L458.815892,1171.40582 C458.365287,1171.85642 457.634713,1171.85642 457.184108,1171.40582 C456.733503,1170.95521 456.733503,1170.22464 457.184108,1169.77403 L460.774034,1166.18411 C461.224639,1165.7335 461.955214,1165.7335 462.405819,1166.18411 Z M455.021204,1166.18411 C455.471809,1166.63471 455.471809,1167.36529 455.021204,1167.81589 L451.431277,1171.40582 C450.980672,1171.85642 450.250097,1171.85642 449.799492,1171.40582 C449.348887,1170.95521 449.348887,1170.22464 449.799492,1169.77403 L453.389419,1166.18411 C453.840024,1165.7335 454.570599,1165.7335 455.021204,1166.18411 Z M447.636588,1166.18411 C448.087193,1166.63471 448.087193,1167.36529 447.636588,1167.81589 L444.046662,1171.40582 C443.596057,1171.85642 442.865482,1171.85642 442.414877,1171.40582 C441.964272,1170.95521 441.964272,1170.22464 442.414877,1169.77403 L446.004804,1166.18411 C446.455408,1165.7335 447.185983,1165.7335 447.636588,1166.18411 Z M440.251973,1166.18411 C440.702578,1166.63471 440.702578,1167.36529 440.251973,1167.81589 L436.662046,1171.40582 C436.211441,1171.85642 435.480866,1171.85642 435.030261,1171.40582 C434.579656,1170.95521 434.579656,1170.22464 435.030261,1169.77403 L438.620188,1166.18411 C439.070793,1165.7335 439.801368,1165.7335 440.251973,1166.18411 Z M447.846154,1140 C451.939701,1140 455.45431,1142.47873 456.970936,1146.01714 C457.158424,1146.00564 457.347784,1146 457.538462,1146 C462.763925,1146 467,1150.23608 467,1155.46154 C467,1159.97342 463.841873,1163.74768 459.615584,1164.69436 L436.538775,1164.63651 C433.342223,1163.73255 431,1160.79365 431,1157.30769 C431,1153.33447 434.042775,1150.07192 437.925222,1149.72316 C438.031412,1144.33519 442.432514,1140 447.846154,1140 Z" id="rainy"></path>
        </g>
    </g>
</svg>